<svg width="25" height="24" viewBox="0 0 25 24" fill="none" xmlns="http://www.w3.org/2000/svg">
<g clip-path="url(#clip0_1222_50)">
<path d="M0.5 0H24.5V24H0.5V0Z" fill="#0F62FE"/>
<path d="M11.953 8.056C11.953 7.433 12.471 7.077 13.395 7.077C15.085 7.077 16.805 7.42 18 8L18.5 4C17.552 3.551 15.68 3 13 3C11.105 3 9.627 3.087 8.5 4C7.328 4.956 6.5 6.33 6.5 8C6.5 11.03 8.458 12.906 11.5 14C13.461 14.69 14.5 14.743 14.5 15.5C14.5 16.235 13.649 17 12.5 17C11.077 17 8.537 16.391 7 15.5L6.5 19.5C7.821 20.234 9.974 21 12.5 21C14.504 21 16.457 20.532 17.584 19.64C18.847 18.661 19.5 17.372 19.5 15.5C19.5 12.404 17.585 10.953 14.497 9.863C12.851 9.258 11.953 8.793 11.953 8.056Z" stroke="#21272A" stroke-width="2" stroke-linecap="round" stroke-linejoin="round"/>
</g>
<defs>
<clipPath id="clip0_1222_50">
<rect width="24" height="24" fill="white" transform="translate(0.5)"/>
</clipPath>
</defs>
</svg>
