<svg width="25" height="25" viewBox="0 0 25 25" fill="none" xmlns="http://www.w3.org/2000/svg">
<path d="M16.086 11.157L12.136 7.20701C11.9538 7.01841 11.853 6.76581 11.8553 6.50361C11.8576 6.24141 11.9628 5.9906 12.1482 5.80519C12.3336 5.61978 12.5844 5.51461 12.8466 5.51234C13.1088 5.51006 13.3614 5.61085 13.55 5.79301L19.207 11.45C19.3002 11.5427 19.3741 11.6528 19.4246 11.7742C19.4751 11.8955 19.501 12.0256 19.501 12.157C19.501 12.2884 19.4751 12.4185 19.4246 12.5399C19.3741 12.6612 19.3002 12.7714 19.207 12.864L13.55 18.521C13.4578 18.6165 13.3474 18.6927 13.2254 18.7451C13.1034 18.7975 12.9722 18.8251 12.8394 18.8263C12.7066 18.8274 12.5749 18.8021 12.452 18.7518C12.3291 18.7016 12.2175 18.6273 12.1236 18.5334C12.0297 18.4395 11.9555 18.3279 11.9052 18.205C11.8549 18.0821 11.8296 17.9504 11.8307 17.8176C11.8319 17.6848 11.8595 17.5536 11.9119 17.4316C11.9643 17.3096 12.0405 17.1993 12.136 17.107L16.086 13.157H6.5C6.23478 13.157 5.98043 13.0517 5.79289 12.8641C5.60536 12.6766 5.5 12.4222 5.5 12.157C5.5 11.8918 5.60536 11.6374 5.79289 11.4499C5.98043 11.2624 6.23478 11.157 6.5 11.157H16.086V11.157Z" fill="#001D6C"/>
</svg>
